<?xml version="1.0" encoding="utf-8"?>
<!-- Generator: Adobe Illustrator 26.5.2, SVG Export Plug-In . SVG Version: 6.00 Build 0)  -->
<svg version="1.1" id="Layer_1" xmlns="http://www.w3.org/2000/svg" xmlns:xlink="http://www.w3.org/1999/xlink" x="0px" y="0px"
	 viewBox="0 0 512 512" style="enable-background:new 0 0 512 512;" xml:space="preserve">
<style type="text/css">
	.st0{fill:#FFFFFF;}
</style>
<g>
	<rect x="-505.12" y="-211" class="st0" width="69.89" height="17"/>
	<text transform="matrix(1 0 0 1 -499.688 -198.2139)" style="font-family:'AcierBATText-Solid'; font-size:14.7205px;">Yohosie</text>
	<polyline points="-503.94,-206.52 -503.94,-209.59 -500.87,-209.59 	"/>
	<polyline points="-436.27,-198.54 -436.27,-195.47 -439.34,-195.47 	"/>
</g>
<g>
	<path class="st0" d="M61.26,48.93h61.87c52.39,0,92.95,38.48,92.95,88.51c0,47.36-36.11,89.1-92.95,89.1H61.26V48.93z
		 M122.24,186.87c27.82,0,49.14-19.54,49.14-49.43c0-27.53-18.65-49.14-49.14-49.14h-17.46v98.57H122.24z"/>
</g>
<g>
	<path class="st0" d="M290.57,48.93h43.51v69.86h69.56V48.93h43.22v177.6h-43.22v-70.15h-69.56v70.15h-43.51V48.93z"/>
</g>
<g>
	<path class="st0" d="M115.95,377.71L52.9,285.95h49.14l35.52,53.28l35.82-53.28h48.84l-63.05,91.76v85.84h-43.22V377.71z"/>
</g>
<g>
	<path class="st0" d="M367.97,280.03c55.95,0,95.61,41.74,95.61,94.72c0,52.99-39.67,94.72-95.61,94.72
		c-56.24,0-95.61-41.74-95.61-94.72C272.36,321.77,311.72,280.03,367.97,280.03z M367.97,428.33c31.38,0,51.5-23.68,51.5-53.58
		s-20.13-53.58-51.5-53.58c-31.67,0-51.5,23.68-51.5,53.58S336.29,428.33,367.97,428.33z"/>
</g>
</svg>
