<?xml version="1.0" encoding="utf-8"?>
<!-- Generator: Adobe Illustrator 27.1.1, SVG Export Plug-In . SVG Version: 6.00 Build 0)  -->
<svg version="1.1"
	 id="svg3070" xmlns:cc="http://creativecommons.org/ns#" xmlns:rdf="http://www.w3.org/1999/02/22-rdf-syntax-ns#" xmlns:dc="http://purl.org/dc/elements/1.1/" xmlns:inkscape="http://www.inkscape.org/namespaces/inkscape" xmlns:sodipodi="http://sodipodi.sourceforge.net/DTD/sodipodi-0.dtd" xmlns:svg="http://www.w3.org/2000/svg" inkscape:version="0.48.0 r9654"
	 xmlns="http://www.w3.org/2000/svg" xmlns:xlink="http://www.w3.org/1999/xlink" x="0px" y="0px" viewBox="0 0 75.8 76.2"
	 style="enable-background:new 0 0 75.8 76.2;" xml:space="preserve">
<style type="text/css">
	.st0{fill:#006699;}
	.st1{fill:#FFFFFF;}
</style>
<sodipodi:namedview  bordercolor="#666666" borderopacity="1.0" fit-margin-bottom="0" fit-margin-left="0" fit-margin-right="0" fit-margin-top="0" id="base" inkscape:current-layer="layer1" inkscape:cx="142.93233" inkscape:cy="33.703355" inkscape:document-units="px" inkscape:pageopacity="0.0" inkscape:pageshadow="2" inkscape:window-height="750" inkscape:window-maximized="1" inkscape:window-width="1280" inkscape:window-x="-8" inkscape:window-y="-8" inkscape:zoom="2.8" pagecolor="#ffffff" showgrid="false">
	</sodipodi:namedview>
<g>
	<path class="st0" d="M40.7,34.4v-0.1C40.7,34.3,40.7,34.4,40.7,34.4L40.7,34.4z"/>
	<path class="st1" d="M70.2,0H5.6C2.5,0,0,2.4,0,5.5v65.3c0,3,2.5,5.5,5.6,5.5h64.6c3.1,0,5.6-2.4,5.6-5.5V5.5
		C75.8,2.4,73.3,0,70.2,0z M23,63.8H11.5V29.4H23V63.8z M17.2,24.7L17.2,24.7L17.2,24.7c-3.9,0-6.4-2.6-6.4-5.9
		c0-3.4,2.6-5.9,6.5-5.9c3.9,0,6.3,2.6,6.4,5.9C23.7,22.1,21.2,24.7,17.2,24.7z M64.2,63.8H52.8V45.4c0-4.6-1.7-7.8-5.8-7.8
		c-3.2,0-5,2.1-5.9,4.2c-0.3,0.7-0.4,1.8-0.4,2.8v19.2H29.3c0,0,0.2-31.2,0-34.4h11.4v4.9c1.5-2.3,4.2-5.7,10.3-5.7
		c7.5,0,13.2,4.9,13.2,15.5V63.8z"/>
</g>
</svg>
